<svg id="Capa_1" enable-background="new 0 0 512 512" height="512" viewBox="0 0 512 512" width="512" xmlns="http://www.w3.org/2000/svg" xmlns:xlink="http://www.w3.org/1999/xlink"><linearGradient id="SVGID_1_" gradientUnits="userSpaceOnUse" x1="256" x2="256" y1="512" y2="0"><stop offset="0" stop-color="#009efd"/><stop offset="1" stop-color="#2af598"/></linearGradient><g><g><g><path d="m222.408 472h-62.408v-60c0-33.084-26.916-60-60-60h-60v-292c0-11.028 8.972-20 20-20h232c11.028 0 20 8.88 20 19.795 0 32.385 0 84.973-.001 142.501 12.74-4.518 26.133-7.638 39.998-9.178l.003-133.323c0-32.971-26.916-59.795-60-59.795h-232c-33.084 0-60 26.916-60 60v320.284l131.716 131.716h127.286c-14.107-11.408-26.464-24.896-36.594-40zm-102.408-28.284-51.716-51.716h31.716c11.028 0 20 8.972 20 20zm252-211.716c-77.196 0-140 62.804-140 140s62.804 140 140 140 140-62.804 140-140-62.804-140-140-140zm0 240c-55.14 0-100-44.86-100-100s44.86-100 100-100 100 44.86 100 100-44.86 100-100 100zm-100-312h-192v40h192zm0-80h-192v40h192zm-192 200h120v-40h-120zm312 32h-40v40h-40v40h40v40h40v-40h40v-40h-40z" fill="url(#SVGID_1_)"/></g></g></g></svg>
